# xmcd
#
# Track frame offsets:
#	150
#	20507
#	34252
#	50387
#	61725
#	76763
#	96841
#	113109
#	133975
#	154601
#	181013
#	196420
#	213731
#	229892
#	247702
#	264957
#	279289
#	296405
#	313355
#	327136
#
# Disc length: 4626 seconds
#
# Revision: 1
# Processed by: cddbd v1.5.2PL0 Copyright (c) Steve Scherf et al.
# Submitted via: audiograbber 1.83.01
#
DISCID=12121014
DTITLE=Алла Пугачева - The Best Of
DYEAR=1900
DGENRE=
TTITLE0=Арлекино
TTITLE1=Все могут короли
TTITLE2=Песенка про меня
TTITLE3=Песенка первоклассника
TTITLE4=Волшебник-недоучка
TTITLE5=Айсберг
TTITLE6=Паромщик
TTITLE7=Старинные часы
TTITLE8=Без меня
TTITLE9=Миллион алых роз
TTITLE10=Делу время
TTITLE11=Прости, поверь
TTITLE12=Сто друзей
TTITLE13=Две звезды
TTITLE14=Надо же
TTITLE15=Чао
TTITLE16=Балалайка
TTITLE17=Пропади ты пропадом, милый
TTITLE18=Этот мир
TTITLE19=Мадам Брошкина (интсрум.)
EXTD=
EXTT0=
EXTT1=
EXTT2=
EXTT3=
EXTT4=
EXTT5=
EXTT6=
EXTT7=
EXTT8=
EXTT9=
EXTT10=
EXTT11=
EXTT12=
EXTT13=
EXTT14=
EXTT15=
EXTT16=
EXTT17=
EXTT18=
EXTT19=
PLAYORDER=
